<svg width="26" height="20" viewBox="0 0 26 20" fill="none" xmlns="http://www.w3.org/2000/svg">
<path d="M11.7692 18.5004C10.5904 19.6792 8.67767 19.6792 7.49944 18.5004L0.884094 11.8849C-0.294698 10.7067 -0.294698 8.79392 0.884094 7.61567C2.06232 6.43685 3.97501 6.43685 5.1538 7.61567L9.09525 11.5566C9.39279 11.8536 9.8758 11.8536 10.1739 11.5566L20.8462 0.884114C22.0244 -0.294705 23.9371 -0.294705 25.1159 0.884114C25.682 1.4502 26 2.21825 26 3.01873C26 3.81921 25.682 4.58726 25.1159 5.15335L11.7692 18.5004Z" fill="#EEB340"/>
<path d="M11.7692 18.5004C10.5904 19.6792 8.67767 19.6792 7.49944 18.5004L0.884094 11.8849C-0.294698 10.7067 -0.294698 8.79392 0.884094 7.61567C2.06232 6.43685 3.97501 6.43685 5.1538 7.61567L9.09525 11.5566C9.39279 11.8536 9.8758 11.8536 10.1739 11.5566L20.8462 0.884114C22.0244 -0.294705 23.9371 -0.294705 25.1159 0.884114C25.682 1.4502 26 2.21825 26 3.01873C26 3.81921 25.682 4.58726 25.1159 5.15335L11.7692 18.5004Z" fill="url(#paint0_linear_373:3157)"/>
<defs>
<linearGradient id="paint0_linear_373:3157" x1="5.70732" y1="14.1838" x2="16.5948" y2="-0.010893" gradientUnits="userSpaceOnUse">
<stop stop-color="#FFE600"/>
<stop offset="1" stop-color="#FFE600" stop-opacity="0"/>
</linearGradient>
</defs>
</svg>
