<svg width="51" height="46" viewBox="0 0 51 46" fill="none" xmlns="http://www.w3.org/2000/svg">
<g clip-path="url(#clip0_373_3349)">
<path d="M12.1609 3.76447C11.9769 3.54917 11.7446 3.37195 11.4795 3.24457C11.2144 3.1172 10.9225 3.04258 10.6233 3.02569C10.324 3.0088 10.0242 3.05001 9.74386 3.14659C9.46347 3.24317 9.20889 3.3929 8.99701 3.58585L5.77394 6.52025C4.26838 7.89247 3.71354 9.83456 4.37124 11.5385C7.10101 18.5912 11.5415 24.9945 17.3633 30.2733C23.1671 35.5684 30.2071 39.6073 37.9611 42.0902C39.8344 42.6884 41.9697 42.1838 43.4783 40.8144L46.7014 37.8828C46.9135 37.6901 47.0782 37.4586 47.1844 37.2035C47.2905 36.9485 47.3359 36.6759 47.3173 36.4037C47.2987 36.1315 47.2167 35.866 47.0766 35.6249C46.9366 35.3838 46.7417 35.1725 46.505 35.0051L39.3139 29.9189C39.061 29.7405 38.7669 29.6166 38.4537 29.5567C38.1405 29.4968 37.8165 29.5024 37.506 29.573L30.6795 31.1238C29.7683 31.3309 28.8137 31.32 27.9086 31.0919C27.0034 30.8639 26.1786 30.4265 25.5145 29.8225L17.8589 22.8565C17.1943 22.2527 16.7128 21.5026 16.4616 20.6793C16.2103 19.8561 16.1977 18.9876 16.4251 18.1586L18.1332 11.9496C18.2109 11.6672 18.217 11.3725 18.1511 11.0876C18.0852 10.8027 17.9491 10.5352 17.7529 10.3052L12.1609 3.76447ZM6.64361 1.44814C7.18908 0.951844 7.8444 0.566774 8.56604 0.318501C9.28769 0.0702282 10.0591 -0.0355669 10.8292 0.00814079C11.5992 0.0518485 12.3502 0.244059 13.0323 0.572009C13.7145 0.899959 14.3121 1.35614 14.7855 1.91027L20.3775 8.44816C21.4031 9.64744 21.7646 11.2096 21.3594 12.6839L19.6544 18.8929C19.5662 19.2145 19.571 19.5514 19.6682 19.8708C19.7654 20.1902 19.9518 20.4813 20.2092 20.7159L27.8679 27.6819C28.1261 27.9165 28.4467 28.0863 28.7985 28.1748C29.1503 28.2632 29.5213 28.2673 29.8753 28.1866L36.6986 26.6357C37.4985 26.4538 38.3334 26.4397 39.1402 26.5944C39.947 26.7491 40.7045 27.0687 41.3556 27.5288L48.5436 32.6151C51.1277 34.4438 51.3646 37.9169 49.0517 40.0177L45.8286 42.9493C43.522 45.0473 40.0745 45.9687 36.8607 44.9396C28.6353 42.3072 21.167 38.0241 15.0099 32.4081C8.83583 26.8087 4.12689 20.0169 1.23233 12.5365C0.103941 9.61625 1.117 6.47772 3.42365 4.3797L6.64672 1.44814H6.64361Z" fill="white"/>
</g>
<defs>
<clipPath id="clip0_373_3349">
<rect width="49.8735" height="45.3626" fill="white" transform="translate(0.769531)"/>
</clipPath>
</defs>
</svg>
