<svg width="26" height="20" viewBox="0 0 26 20" fill="none" xmlns="http://www.w3.org/2000/svg">
<path d="M11.7692 18.808C10.5904 19.9868 8.67767 19.9868 7.49944 18.808L0.884094 12.1925C-0.294698 11.0143 -0.294698 9.10153 0.884094 7.92328C2.06232 6.74447 3.97501 6.74447 5.1538 7.92328L9.09525 11.8642C9.39279 12.1612 9.8758 12.1612 10.1739 11.8642L20.8462 1.19173C22.0244 0.0129126 23.9371 0.0129126 25.1159 1.19173C25.682 1.75781 26 2.52587 26 3.32635C26 4.12683 25.682 4.89488 25.1159 5.46096L11.7692 18.808Z" fill="#EEB340"/>
<path d="M11.7692 18.808C10.5904 19.9868 8.67767 19.9868 7.49944 18.808L0.884094 12.1925C-0.294698 11.0143 -0.294698 9.10153 0.884094 7.92328C2.06232 6.74447 3.97501 6.74447 5.1538 7.92328L9.09525 11.8642C9.39279 12.1612 9.8758 12.1612 10.1739 11.8642L20.8462 1.19173C22.0244 0.0129126 23.9371 0.0129126 25.1159 1.19173C25.682 1.75781 26 2.52587 26 3.32635C26 4.12683 25.682 4.89488 25.1159 5.46096L11.7692 18.808Z" fill="url(#paint0_linear_373:3174)"/>
<defs>
<linearGradient id="paint0_linear_373:3174" x1="5.70732" y1="14.4914" x2="16.5948" y2="0.296724" gradientUnits="userSpaceOnUse">
<stop stop-color="#FFE600"/>
<stop offset="1" stop-color="#FFE600" stop-opacity="0"/>
</linearGradient>
</defs>
</svg>
