<svg width="91" height="92" viewBox="0 0 91 92" fill="none" xmlns="http://www.w3.org/2000/svg">
<g clip-path="url(#clip0_417:10039)">
<path d="M40.0745 0C17.978 0 0 18.1756 0 40.5149C0 62.8554 17.978 81.0297 40.0745 81.0297C62.1722 81.0297 80.149 62.8554 80.149 40.5149C80.149 18.1756 62.1722 0 40.0745 0ZM40.0745 73.5502C22.057 73.5502 7.39837 58.7305 7.39837 40.515C7.39837 22.2996 22.057 7.47967 40.0745 7.47967C58.0919 7.47967 72.7506 22.2994 72.7506 40.5149C72.7506 58.7303 58.0919 73.5502 40.0745 73.5502Z" fill="white"/>
<path d="M89.9178 85.616L68.7091 64.1742C67.264 62.7132 64.9236 62.7132 63.4784 64.1742C62.0332 65.634 62.0332 68.0027 63.4784 69.4624L84.6871 90.9042C85.4096 91.6346 86.3555 91.9999 87.3025 91.9999C88.2482 91.9999 89.1951 91.6346 89.9178 90.9042C91.363 89.4444 91.363 87.0758 89.9178 85.616Z" fill="white"/>
<path d="M40 41H24M40 57V41V57ZM40 41V25V41ZM40 41H56H40Z" stroke="white" stroke-width="2" stroke-linecap="round"/>
</g>
<defs>
<clipPath id="clip0_417:10039">
<rect width="91" height="92" fill="white"/>
</clipPath>
</defs>
</svg>
