<svg width="19" height="15" viewBox="0 0 19 15" fill="none" xmlns="http://www.w3.org/2000/svg">
<path d="M17.668 0.5H1.33464C1.02522 0.5 0.72847 0.622916 0.509677 0.841709C0.290885 1.0605 0.167969 1.35725 0.167969 1.66667V13.3333C0.167969 13.6428 0.290885 13.9395 0.509677 14.1583C0.72847 14.3771 1.02522 14.5 1.33464 14.5H17.668C17.9774 14.5 18.2741 14.3771 18.4929 14.1583C18.7117 13.9395 18.8346 13.6428 18.8346 13.3333V1.66667C18.8346 1.35725 18.7117 1.0605 18.4929 0.841709C18.2741 0.622916 17.9774 0.5 17.668 0.5ZM16.7696 13.3333H2.30297L6.3863 9.11L5.5463 8.29917L1.33464 12.6567V2.55333L8.58547 9.76917C8.80406 9.98646 9.09975 10.1084 9.40797 10.1084C9.71619 10.1084 10.0119 9.98646 10.2305 9.76917L17.668 2.3725V12.5808L13.3746 8.2875L12.5521 9.11L16.7696 13.3333ZM2.0988 1.66667H16.723L9.40797 8.94083L2.0988 1.66667Z" fill="black"/>
</svg>
