<svg width="48" height="51" viewBox="0 0 48 51" fill="none" xmlns="http://www.w3.org/2000/svg">
<path d="M10.5 0C8.64375 0 7.125 1.43437 7.125 3.1875V47.8125C7.125 49.5656 8.64375 51 10.5 51H44.25C46.1063 51 47.625 49.5656 47.625 47.8125V12.75L34.125 0H10.5Z" fill="#E2E5E7"/>
<path d="M37.5 12.75H47.625L34.125 0V9.5625C34.125 11.3156 35.6437 12.75 37.5 12.75Z" fill="#B0B7BD"/>
<path d="M47.625 22.3125L37.5 12.75H47.625V22.3125Z" fill="#CAD1D8"/>
<path d="M40.875 41.4375C40.875 42.3141 40.1156 43.0312 39.1875 43.0312H2.0625C1.13437 43.0312 0.375 42.3141 0.375 41.4375V25.5C0.375 24.6234 1.13437 23.9062 2.0625 23.9062H39.1875C40.1156 23.9062 40.875 24.6234 40.875 25.5V41.4375Z" fill="#F15642"/>
<path d="M7.73047 30.1969C7.73047 29.7761 8.08147 29.3171 8.64678 29.3171H11.7636C13.5186 29.3171 15.0981 30.4264 15.0981 32.5524C15.0981 34.5669 13.5186 35.689 11.7636 35.689H9.51078V37.3719C9.51078 37.9329 9.13278 38.2501 8.64678 38.2501C8.20128 38.2501 7.73047 37.9329 7.73047 37.3719V30.1969ZM9.51078 30.922V34.0968H11.7636C12.6681 34.0968 13.3836 33.3429 13.3836 32.5524C13.3836 31.6615 12.6681 30.922 11.7636 30.922H9.51078Z" fill="white"/>
<path d="M17.7401 38.2502C17.2946 38.2502 16.8086 38.0207 16.8086 37.4613V30.2224C16.8086 29.765 17.2946 29.4319 17.7401 29.4319H20.8299C26.996 29.4319 26.861 38.2502 20.9514 38.2502H17.7401ZM18.5906 30.9874V36.6963H20.8299C24.4732 36.6963 24.6352 30.9874 20.8299 30.9874H18.5906Z" fill="white"/>
<path d="M29.0503 31.0894V33.1151H32.4911C32.9771 33.1151 33.4631 33.574 33.4631 34.0187C33.4631 34.4395 32.9771 34.7837 32.4911 34.7837H29.0503V37.4596C29.0503 37.9059 28.7145 38.2485 28.242 38.2485C27.648 38.2485 27.2852 37.9059 27.2852 37.4596V30.2208C27.2852 29.7634 27.6497 29.4303 28.242 29.4303H32.9788C33.5728 29.4303 33.9238 29.7634 33.9238 30.2208C33.9238 30.6288 33.5728 31.0878 32.9788 31.0878H29.0503V31.0894Z" fill="white"/>
<path d="M39.1875 43.0312H7.125V44.625H39.1875C40.1156 44.625 40.875 43.9078 40.875 43.0312V41.4375C40.875 42.3141 40.1156 43.0312 39.1875 43.0312Z" fill="#CAD1D8"/>
</svg>
