<svg width="14" height="18" viewBox="0 0 14 18" fill="none" xmlns="http://www.w3.org/2000/svg">
<path d="M1.64362 5.57184C1.40487 3.99934 2.51362 2.58684 4.20737 2.06934C4.50794 1.97744 4.83224 2.0036 5.11419 2.14249C5.39614 2.28138 5.61453 2.52254 5.72487 2.81684L6.26862 4.26684C6.35615 4.50011 6.37198 4.75421 6.31407 4.99653C6.25616 5.23886 6.12716 5.45835 5.94362 5.62684L4.32612 7.10809C4.24639 7.18126 4.18698 7.27383 4.15368 7.3768C4.12038 7.47976 4.11433 7.58959 4.13612 7.69559L4.15112 7.76059L4.18987 7.92309C4.39103 8.71265 4.69753 9.47154 5.10112 10.1793C5.54076 10.9315 6.08635 11.6164 6.72112 12.2131L6.77112 12.2581C6.85187 12.3298 6.94981 12.3793 7.0554 12.4019C7.16099 12.4244 7.27062 12.4193 7.37362 12.3868L9.46487 11.7281C9.70253 11.6535 9.95707 11.6516 10.1958 11.7226C10.4346 11.7937 10.6467 11.9344 10.8049 12.1268L11.7949 13.3281C12.2074 13.8281 12.1574 14.5631 11.6836 15.0043C10.3874 16.2131 8.60487 16.4606 7.36487 15.4643C5.8449 14.2383 4.56356 12.743 3.58487 11.0531C2.59823 9.36451 1.93919 7.50488 1.64237 5.57184H1.64362ZM5.44737 7.77809L6.78737 6.54809C7.15466 6.21126 7.41291 5.77234 7.52895 5.28768C7.64499 4.80302 7.61354 4.29474 7.43862 3.82809L6.89612 2.37809C6.67405 1.7859 6.23453 1.30067 5.66714 1.02126C5.09974 0.741862 4.44716 0.689319 3.84237 0.87434C1.73862 1.51809 0.0498675 3.40434 0.407368 5.76059C0.657368 7.40559 1.23362 9.49809 2.50487 11.6831C3.56076 13.5052 4.94294 15.1175 6.58237 16.4393C8.44237 17.9331 10.9249 17.4231 12.5374 15.9206C13.4949 15.0281 13.5924 13.5456 12.7611 12.5356L11.7711 11.3331C11.4544 10.9487 11.0301 10.6677 10.5526 10.526C10.0751 10.3844 9.5662 10.3886 9.09112 10.5381L7.35487 11.0843C6.90658 10.6221 6.51391 10.1091 6.18487 9.55559C5.86702 8.99604 5.61932 8.39946 5.44737 7.77934V7.77809Z" fill="black"/>
</svg>
