<svg width="134" height="134" viewBox="0 0 134 134" fill="none" xmlns="http://www.w3.org/2000/svg">
<g clip-path="url(#clip0_373:3277)">
<path d="M103.322 50.1767C80.5529 25.0292 75.3807 5.4707 75.3807 5.4707C75.3807 5.4707 71.4373 7.23048 66.9983 11.2624L61.4102 75.3239L66.9983 130.071H66.9986C94.462 130.071 116.725 107.808 116.725 80.3447C116.725 69.0006 110.39 57.983 103.322 50.1767Z" fill="#FF6200"/>
<path d="M58.6179 22.2348C55.7697 27.9314 55.0989 34.3539 55.1261 39.2825C55.1523 44.0636 51.7841 48.1899 47.096 49.1276C43.8206 49.7828 40.4346 48.7575 38.0726 46.3955L33.4707 41.7936C33.4707 41.7936 26.6485 51.2004 25.4794 52.9702C20.2281 60.9193 17.1984 70.4648 17.2749 80.7225C17.4786 108.117 39.6045 130.071 67.0003 130.071V11.2617C64.0966 13.899 60.9812 17.5082 58.6179 22.2348Z" fill="#FD7D21"/>
<path d="M106.238 47.5387C94.8767 34.9905 88.1249 23.9443 84.461 16.8871C80.493 9.24317 79.1927 4.50318 79.1827 4.46546L78.0016 0L73.7831 1.88159C73.5429 1.98872 70.6552 3.30502 67.0013 6.13513L64.207 11.0582L67.0013 16.8518C69.1849 14.4023 71.4371 12.5712 73.2485 11.3037C76.2038 18.8206 83.6953 34.3503 100.412 52.8136C104.137 56.9267 112.799 67.8432 112.799 80.3443C112.799 105.597 92.254 126.142 67.0015 126.142H67.0013L64.207 131.206L67.0013 134H67.0015C96.5875 134 120.657 109.93 120.657 80.3443C120.658 69.6169 115.402 57.6599 106.238 47.5387Z" fill="#FFB62D"/>
<path d="M34.7081 112.88C26.0904 104.329 21.2947 92.8976 21.2038 80.6931C21.1356 71.5568 23.7478 62.7191 28.7576 55.1359C29.3693 54.2102 31.8229 50.787 33.9529 47.833L35.2938 49.1739C38.5923 52.4724 43.2911 53.8956 47.8663 52.9806C54.3857 51.6766 59.0914 45.9069 59.055 39.261C59.0322 35.1481 59.5477 29.1607 62.1319 23.9919C63.5336 21.1885 65.2446 18.8207 66.9999 16.8517V6.13477C63.1514 9.11602 58.453 13.7772 55.103 20.4773C51.8247 27.0342 51.169 34.3345 51.1965 39.3037C51.2125 42.1956 49.1635 44.7066 46.3248 45.2743C44.3345 45.6719 42.2871 45.0532 40.8505 43.6167L32.9928 35.7589L30.2898 39.4862C30.0092 39.8731 23.4033 48.9835 22.2007 50.8038C16.3281 59.6936 13.2659 70.0492 13.3453 80.7512C13.4516 95.0445 19.0725 108.436 29.1725 118.458C39.2718 128.48 52.7059 134 66.9999 134V126.141C54.7936 126.141 43.3254 121.432 34.7081 112.88Z" fill="#FDCB02"/>
<path d="M67.0024 53.9727C66.9733 53.9727 66.9442 53.9737 66.9151 53.9737L60.3672 84.708L66.9151 115.442C66.9442 115.442 66.9733 115.443 67.0024 115.443C83.977 115.443 97.7378 101.683 97.7378 84.708C97.7378 67.7334 83.977 53.9727 67.0024 53.9727Z" fill="#ED3800"/>
<path d="M36.2656 84.7089C36.2656 101.654 49.9792 115.396 66.9138 115.443V53.9746C49.9795 54.0218 36.2656 67.7634 36.2656 84.7089Z" fill="#FF4B00"/>
<path d="M83.6762 66.667H74.9651L66.9138 78.4574L64.207 89.294L66.9138 91.2146L83.6762 66.667Z" fill="#D9E7EC"/>
<path d="M80.2205 83.1621C74.7567 83.1621 70.6328 86.8218 70.6328 93.2137C70.6328 99.6569 74.7564 103.265 80.2205 103.265C85.6845 103.265 89.8081 99.6569 89.8081 93.2137C89.8081 86.8218 85.6842 83.1621 80.2205 83.1621ZM80.2205 97.698C79.0865 97.698 77.9525 96.667 77.9525 93.2134C77.9525 89.7599 79.0865 88.7288 80.2205 88.7288C81.3544 88.7288 82.4884 89.7599 82.4884 93.2134C82.4884 96.667 81.3544 97.698 80.2205 97.698Z" fill="#D9E7EC"/>
<path d="M59.0354 102.749L66.9119 91.2143V78.457L50.3242 102.749H59.0354Z" fill="#FAFCFD"/>
<path d="M63.3667 76.2029C63.3667 69.8113 59.2431 66.1514 53.779 66.1514C48.315 66.1514 44.1914 69.8111 44.1914 76.2029C44.1914 82.6461 48.315 86.2544 53.779 86.2544C59.2431 86.2544 63.3667 82.6461 63.3667 76.2029ZM51.5111 76.2029C51.5111 72.7494 52.6451 71.7183 53.779 71.7183C54.913 71.7183 56.047 72.7494 56.047 76.2029C56.047 79.6565 54.913 80.6875 53.779 80.6875C52.6451 80.6875 51.5111 79.6565 51.5111 76.2029Z" fill="#FAFCFD"/>
</g>
<defs>
<clipPath id="clip0_373:3277">
<rect width="134" height="134" fill="white"/>
</clipPath>
</defs>
</svg>
