<svg width="22" height="22" viewBox="0 0 22 22" fill="none" xmlns="http://www.w3.org/2000/svg">
<path d="M21.0557 7.96661L14.609 7.0297L11.7272 1.18731C11.6485 1.02735 11.519 0.897861 11.359 0.81915C10.9579 0.621103 10.4703 0.786142 10.2698 1.18731L7.38793 7.0297L0.941249 7.96661C0.763515 7.992 0.601015 8.07579 0.476601 8.20274C0.326191 8.35734 0.243309 8.56532 0.246165 8.781C0.249022 8.99667 0.337384 9.20238 0.491835 9.35294L5.15609 13.9004L4.05414 20.3217C4.0283 20.4711 4.04483 20.6247 4.10185 20.7651C4.15888 20.9056 4.25412 21.0273 4.37677 21.1164C4.49943 21.2054 4.64459 21.2584 4.7958 21.2692C4.94701 21.2799 5.09821 21.2481 5.23226 21.1774L10.9985 18.1457L16.7647 21.1774C16.9221 21.2611 17.1049 21.2891 17.2801 21.2586C17.7219 21.1824 18.019 20.7635 17.9428 20.3217L16.8409 13.9004L21.5051 9.35294C21.6321 9.22853 21.7159 9.06602 21.7412 8.88829C21.8098 8.44395 21.5 8.03263 21.0557 7.96661V7.96661Z" fill="black"/>
</svg>
